<?xml version="1.0" encoding="utf-8"?>
<!-- Generator: Adobe Illustrator 18.0.0, SVG Export Plug-In . SVG Version: 6.00 Build 0)  -->
<!DOCTYPE svg PUBLIC "-//W3C//DTD SVG 1.1//EN" "http://www.w3.org/Graphics/SVG/1.1/DTD/svg11.dtd">
<svg version="1.1" id="Ebene_1" xmlns="http://www.w3.org/2000/svg" xmlns:xlink="http://www.w3.org/1999/xlink" x="0px" y="0px"
	 viewBox="0 0 300 300" enable-background="new 0 0 300 300" xml:space="preserve">
<g>
	<path fill="#A2559D" d="M10,150C10,72.7,72.7,10,150,10c77.3,0,140,62.7,140,140c0,77.3-62.7,140-140,140C72.7,290,10,227.3,10,150
		z"/>
	<g>
		<g>
			<path fill="#FFFFFF" d="M70,174.4c0,0-0.1-6.6,5.4-8.5c5.5-1.8,31.5-6.3,31.5-6.3s2.1-0.4,4.9,0c2.8,0.4,23,5,24.9,5.9
				c1.9,0.9,4,2.7,4,7.1c0.1,4.4-0.3,39.2-0.3,39.2s-0.8,3.3-6.7,5.5c-5.8,2.2-24.2,8.8-26.8,8.9c-3.4,0.1-5,0.5-11.6-0.6
				c-1.2-0.2-23.9-6.7-25.4-10.9C69.2,212.5,70.4,167.5,70,174.4z"/>
			<path fill="#A2559D" stroke="#A2559D" stroke-width="0.15" stroke-miterlimit="10" d="M75.2,166.6c0,0,14.6,6.4,26.6,8.4
				c0,0,1.9,0.2,4.1-0.1c2.2-0.3,19.2-5.2,31.6-8.1c0,0,0.7,0.1,1.3,0.7c0.6,0.6,1.1,2,1.1,2s-8.3,0.3-24.6,5.5
				c-6.4,2-7.6,2.1-8.7,4.3c-1.3,2.7-0.4,43.6-0.2,45.4c0,0-2.9,1.1-3.7-0.2c0.6-14.7,0.4-14.7,0.5-22.5c0-9.7,0.1-19.4-1.4-23
				c-1.6-4-30.4-9.4-29.7-9.3c0,0,0.3-1.5,1.3-2.3C74.3,166.8,75.2,166.6,75.2,166.6z"/>
		</g>
		<g>
			<g>
				<path fill="#FFFFFF" d="M166.4,168.3V211c0,7.7,13.8,14.3,30.8,14.3c14.6,0,30.9-4.8,30.9-13.5v-43.5H166.4z"/>
				<g>
					<path fill="#FFFFFF" d="M228.1,168.3c0,4-13.8,7.3-30.9,7.3c-17,0-30.8-3.3-30.8-7.3c0-4,13.8-7.3,30.8-7.3
						C214.2,161,228.1,164.3,228.1,168.3z"/>
				</g>
			</g>
			<path fill="#A2559D" stroke="#A2559D" stroke-width="0.15" stroke-miterlimit="10" d="M167.3,167.7c0,0,5.8,7,30.1,7.1
				c24.3,0.1,29.2-7.9,30.1-7.4c0.5,0.3,0.5,1.7,0.4,3c-0.2,0.2-7.6,6.8-30.5,6.8c-23.2,0-28.5-4.4-30.3-5.7
				C166.4,171,165.9,167.4,167.3,167.7z"/>
		</g>
		<g>
			<path fill="#FFFFFF" d="M141.2,118.1c0,0-23.4-43.2-24.8-45.4c-0.9-1.4-1.9-1.8-2.7-1.8c0,0,0,0,0,0l-14.8-3.5
				c0,0-0.3-0.1-0.7,0.1c-0.5,0.2-0.6,0.5-0.6,0.5l-28,55.6c0,0-1.1,2.3,0.3,3.9c1.2,1.3,10.9,3.8,14.2,4.3c1.6,0.3,2.9,0.2,2.9,0.2
				s50.5-10.6,52.7-10.8C142.4,121,141.2,118.1,141.2,118.1z"/>
		</g>
		<path fill="#A2559D" d="M110.9,72.2c0,0-6.4,15-13.5,29.9c-6.4,13.4-13,25.8-13.6,27.7c-0.6,1.9,3,2.4,3.4,1.6
			c0,0,5.8-12.9,12.6-27.6c6.7-14.4,14-28.5,14.1-29.5c0.1-0.4-0.2-1.8-0.9-2.2C112.2,71.6,111,72.1,110.9,72.2z"/>
		<path fill="#FFFFFF" d="M171.2,73.5c0,0,25.5-6.4,26.9-6.2c1.4,0.2,1.6,0.9,2.3,1.8c0.7,0.9,13.4,19,13.4,19s0.4,1,0.2,2.1
			c-0.3,1.1-9.5,30.5-9.5,30.5s0,0.9-1.2,1.3c-1.1,0.4-26.9,6.5-26.9,6.5s-1.2,0-1.9-1.1c-0.6-1-12-23.6-12-23.6s-0.8-0.8-0.3-2.1
			c0.8-2.2,7.7-24.8,7.7-24.8S170.1,74.3,171.2,73.5z"/>
		<path fill="#FFFFFF" d="M176.9,123.8c1.7-1,13.1-1.1,14-0.6c0.9,0.5,5,6.8,5,7.4c0,0,0.5,1-4,0.8c-4.5-0.1-15.3-2.2-16.6-3.3"/>
		<path fill="#FFFFFF" d="M198.1,67.3c0,0,17.2,4.2,18.2,5.1c1,0.9,0,1.4-1.7,2.2c-1.7,0.9-7.6,3.7-10.1,2.4
			c-2.6-1.2-4.5-4.6-4.7-5.2C199.7,71.3,198.1,67.3,198.1,67.3z"/>
		<g>
			<path fill="#FFFFFF" d="M189.5,78.2c0,0,24.7-6.2,26-6c1.4,0.2,1.5,0.9,2.2,1.7c0.7,0.9,12.9,18.4,12.9,18.4s0.4,0.9,0.2,2
				c-0.2,1.1-9.2,29.6-9.2,29.6s0,0.9-1.2,1.3c-1.1,0.4-26,6.3-26,6.3s-1.2,0-1.8-1c-0.6-0.9-11.6-22.9-11.6-22.9s-0.7-0.7-0.3-2.1
				c0.8-2.1,7.5-24.1,7.5-24.1S188.5,79,189.5,78.2z"/>
		</g>
		<path fill="#A2559D" stroke="#A2559D" stroke-width="0.12" stroke-miterlimit="10" d="M173.3,73c0,0,3.8,2.5,16.8,4.5
			c0,0-0.6,2.1-1.3,2c-0.9-0.1-17.7-4.7-17.7-4.7s-0.6-0.9,0.1-1.5C171.7,73.1,171.3,73,173.3,73z"/>
		<path fill="#A2559D" stroke="#A2559D" stroke-width="0.12" stroke-miterlimit="10" d="M162.6,100.5c0,0,5,2.2,18.2,5
			c0,0-0.4,2.2-1.2,2.2c-0.9-0.1-17.5-4.5-17.5-4.5S161.5,100.6,162.6,100.5z"/>
		<g>
			<path fill="#FFFFFF" stroke="#A2559D" stroke-width="0.2" stroke-linejoin="round" stroke-miterlimit="10" d="M214.4,72.3
				c0,0-23.1,4.8-24.9,5.9c-1.8,1.1-8.7,26.2-8.9,28.7c-0.2,2.6,11.1,23.5,12.5,24"/>
			<path fill="#A2559D" stroke="#A2559D" stroke-width="0.2" stroke-linejoin="round" stroke-miterlimit="10" d="M216.3,72.4
				c-0.5,0.2-3,0.6-3.5,0.8c-2.8,0.8-5.1,1.2-8.4,2c-3.3,0.9-6.7,1.7-10,2.7l-2.4,0.7l-1.2,0.4c-0.2,0.1-0.4,0.1-0.5,0.2
				c0,0-0.2,0.1,0,0c-0.2,0.2,0.1-0.1,0,0c-0.3,0.4-0.7,1.3-0.9,2c-0.3,0.8-0.6,1.6-0.8,2.4c-1.1,3.2-2,6.5-3,9.9
				c-1,3.3-1.9,6.6-2.8,9.9l-0.6,2.5c-0.1,0.4-0.2,0.8-0.2,1.1c0-0.1,0,0,0,0.1c0,0,0,0,0,0l0,0.2c0,0.2,0.1,0.3,0.1,0.5
				c0.5,1.5,1.2,3.1,1.8,4.7c1.4,3.1,2.9,6.3,4.4,9.3c0.7,1.6,1.5,3.1,2.3,4.6c0.4,0.8,0.8,1.5,1.2,2.3c0.4,0.7,0.8,1.6,1.4,2.1
				l-0.1,0.1c-0.7-0.6-1.1-1.4-1.6-2.1c-0.5-0.7-0.9-1.5-1.4-2.2c-0.9-1.5-1.7-3-2.6-4.5c-1.7-3-3.3-6.1-4.8-9.2
				c-0.7-1.6-1.5-3.1-2-4.8c-0.1-0.4-0.3-0.8-0.3-1.3c0.1-0.4,0.1-0.9,0.2-1.3c0.2-0.8,0.4-1.7,0.6-2.5c0.8-3.4,1.7-6.7,2.7-10
				c1-3.3,2-6.6,3.1-9.9c0.6-1.6,1.1-3.3,2.1-4.8c0.3-0.4,0.8-0.5,1.2-0.6l1.2-0.4l2.5-0.6c6.7-1.6,13.5-3,20.3-4.5L216.3,72.4z"/>
		</g>
	</g>
</g>
</svg>
